<svg viewBox="0 0 32 32" xmlns="http://www.w3.org/2000/svg" role="img" aria-label="qrdurian">
  <!-- body: rounded spikes -->
  <path d="M16 4.9L19.39 8.2L24.1 7.85L24.57 12.55L28.41 15.31L25.75 19.22L26.91 23.8L22.36 25.08L20.31 29.34L16 27.4L11.69 29.34L9.64 25.08L5.09 23.8L6.25 19.22L3.59 15.31L7.43 12.55L7.9 7.85L12.61 8.2Z"
        fill="#9FE870" stroke="#9FE870" stroke-width="2" stroke-linejoin="round"/>
  <!-- stem + leaf -->
  <path d="M16 6.2 C16 4.4 15.5 3.1 14.4 2.2" fill="none" stroke="#163300" stroke-width="2.4" stroke-linecap="round"/>
  <path d="M15.4 3.2 C16.8 1.5 19.2 1.6 20.1 2.7 C19 4.5 16.6 4.5 15.4 3.2 Z" fill="#9FE870" stroke="#163300" stroke-width="1" stroke-linejoin="round"/>
  <!-- QR face -->
  <g clip-path="url(#dcc)">
    <rect x="9" y="10.6" width="7.6" height="7.6" rx="2" fill="#163300"/>
    <rect x="10.6" y="12.2" width="4.4" height="4.4" rx="1.1" fill="#9FE870"/>
    <rect x="11.9" y="13.5" width="1.8" height="1.8" rx=".5" fill="#163300"/>
    <rect x="18.4" y="19.4" width="5.2" height="5.2" rx="1.4" fill="#163300"/>
    <rect x="19.6" y="20.6" width="2.8" height="2.8" rx=".8" fill="#9FE870"/>
    <rect x="20.5" y="21.5" width="1" height="1" rx=".3" fill="#163300"/>
    <g fill="#163300">
      <rect x="17.9" y="10.7" width="2.2" height="2.2" rx=".7"/>
      <rect x="21.2" y="12.4" width="2.2" height="2.2" rx=".7"/>
      <rect x="17.9" y="14.1" width="2.2" height="2.2" rx=".7"/>
      <rect x="21.2" y="15.8" width="2.2" height="2.2" rx=".7"/>
      <rect x="9" y="19.5" width="2.2" height="2.2" rx=".7"/>
      <rect x="12.3" y="19.5" width="2.2" height="2.2" rx=".7"/>
      <rect x="10.6" y="22.7" width="2.2" height="2.2" rx=".7"/>
      <rect x="14.8" y="22.4" width="2.2" height="2.2" rx=".7"/>
    </g>
  </g>
  <defs><clipPath id="dcc"><circle cx="16" cy="17.5" r="10.2"/></clipPath></defs>
</svg>
